<?xml version="1.0" standalone="no"?>
<!DOCTYPE svg PUBLIC "-//W3C//DTD SVG 20010904//EN"
 "http://www.w3.org/TR/2001/REC-SVG-20010904/DTD/svg10.dtd">
<svg version="1.0" xmlns="http://www.w3.org/2000/svg"
 width="200.000000pt" height="200.000000pt" viewBox="0 0 200.000000 200.000000"
 preserveAspectRatio="xMidYMid meet">
<metadata>
Created by potrace 1.14, written by Peter Selinger 2001-2017
</metadata>
<g transform="translate(0.000000,200.000000) scale(0.100000,-0.100000)"
fill="#000000" stroke="none">
<path d="M1208 1989 c-66 -13 -174 -59 -239 -102 -30 -20 -101 -83 -157 -141
-97 -101 -102 -107 -102 -148 1 -66 44 -108 111 -108 27 0 49 17 148 114 120
117 157 142 250 170 261 77 541 -116 568 -393 13 -143 -35 -253 -177 -401
-104 -108 -124 -143 -108 -192 17 -48 72 -79 125 -70 27 4 187 162 248 244
130 174 160 428 75 628 -79 185 -235 325 -430 385 -63 19 -242 27 -312 14z"/>
<path d="M1237 1361 c-41 -9 -584 -553 -597 -599 -21 -76 49 -146 128 -127 36
8 578 548 591 590 13 39 10 58 -17 94 -24 33 -65 50 -105 42z"/>
<path d="M361 1274 c-36 -15 -172 -152 -236 -236 -43 -58 -97 -174 -110 -238
-17 -79 -13 -232 7 -303 68 -246 250 -421 503 -484 42 -10 212 -11 265 -2 75
14 187 62 254 109 66 46 226 210 242 248 24 54 -7 116 -67 133 -55 17 -79 3
-191 -109 -137 -138 -225 -182 -371 -182 -301 0 -518 309 -418 595 26 73 58
118 161 225 50 52 93 105 96 117 22 85 -57 160 -135 127z"/>
</g>
</svg>
